<svg xmlns="http://www.w3.org/2000/svg" id="flag-icons-us" viewBox="0 0 512 512">
  <g fill-rule="evenodd" stroke-width="1.3">
    <path fill="#fff" d="M0 0h512v512H0z"/>
    <path fill="#bd3d44" d="M0 0h512v39.4H0zm0 78.8h512v39.4H0zm0 78.8h512v39.4H0zm0 78.8h512v39.4H0zm0 78.8h512v39.4H0zm0 78.8h512v39.4H0zm0 78.8h512v39.4H0z"/>
    <path fill="#192f5d" d="M0 0h256v275.7H0z"/>
    <path fill="#fff" d="m12.9 12.9 8.6 26.4 8.6-26.4L0 27.5h43zm43 0 8.6 26.4 8.6-26.4-21.5-14.6h43zm43 0 8.6 26.4 8.6-26.4-21.5-14.6h43zm43 0 8.6 26.4 8.6-26.4-21.5-14.6h43zm43 0 8.6 26.4 8.6-26.4-21.5-14.6h43zM34.4 52.3l8.6 26.4 8.6-26.4-21.5-14.6h43zm43 0 8.6 26.4 8.6-26.4-21.5-14.6h43zm43 0 8.6 26.4 8.6-26.4-21.5-14.6h43zm43 0 8.6 26.4 8.6-26.4-21.5-14.6h43zM12.9 91.7l8.6 26.4 8.6-26.4-21.5-14.6h43zm43 0 8.6 26.4 8.6-26.4-21.5-14.6h43zm43 0 8.6 26.4 8.6-26.4-21.5-14.6h43zm43 0 8.6 26.4 8.6-26.4-21.5-14.6h43zm43 0 8.6 26.4 8.6-26.4-21.5-14.6h43zM34.4 131.1l8.6 26.4 8.6-26.4-21.5-14.6h43zm43 0 8.6 26.4 8.6-26.4-21.5-14.6h43zm43 0 8.6 26.4 8.6-26.4-21.5-14.6h43zm43 0 8.6 26.4 8.6-26.4-21.5-14.6h43zM12.9 170.5l8.6 26.4 8.6-26.4-21.5-14.6h43zm43 0 8.6 26.4 8.6-26.4-21.5-14.6h43zm43 0 8.6 26.4 8.6-26.4-21.5-14.6h43zm43 0 8.6 26.4 8.6-26.4-21.5-14.6h43zm43 0 8.6 26.4 8.6-26.4-21.5-14.6h43zM34.4 209.9l8.6 26.4 8.6-26.4-21.5-14.6h43zm43 0 8.6 26.4 8.6-26.4-21.5-14.6h43zm43 0 8.6 26.4 8.6-26.4-21.5-14.6h43zm43 0 8.6 26.4 8.6-26.4-21.5-14.6h43zM12.9 249.3l8.6 26.4 8.6-26.4-21.5-14.6h43zm43 0 8.6 26.4 8.6-26.4-21.5-14.6h43zm43 0 8.6 26.4 8.6-26.4-21.5-14.6h43zm43 0 8.6 26.4 8.6-26.4-21.5-14.6h43zm43 0 8.6 26.4 8.6-26.4-21.5-14.6h43z"/>
  </g>
</svg>
